<?xml version="1.0" standalone="no"?>
<!DOCTYPE svg PUBLIC "-//W3C//DTD SVG 20010904//EN"
 "http://www.w3.org/TR/2001/REC-SVG-20010904/DTD/svg10.dtd">
<svg version="1.0" xmlns="http://www.w3.org/2000/svg"
 width="700.000000pt" height="700.000000pt" viewBox="0 0 700.000000 700.000000"
 preserveAspectRatio="xMidYMid meet">
<metadata>
Created by potrace 1.14, written by Peter Selinger 2001-2017
</metadata>
<g transform="translate(0.000000,700.000000) scale(0.100000,-0.100000)"
fill="#000000" stroke="none">
<path d="M2565 6743 c2 -137 7 -383 10 -548 3 -165 8 -390 10 -500 8 -393 17
-923 19 -1113 l1 -194 -170 2 c-93 1 -237 4 -320 5 -82 2 -280 6 -440 10 -159
3 -373 8 -475 10 -102 2 -338 7 -525 10 -187 3 -414 8 -504 10 -138 4 -161 2
-145 -9 23 -16 253 -144 379 -211 50 -27 102 -56 117 -67 14 -10 28 -18 31
-18 2 0 80 -42 173 -93 93 -52 194 -107 224 -124 30 -16 75 -41 100 -55 59
-33 529 -292 600 -331 30 -16 75 -41 100 -55 25 -14 110 -61 190 -105 80 -43
159 -87 175 -97 17 -10 57 -32 90 -50 33 -18 64 -36 68 -40 7 -6 -131 -241
-418 -710 -28 -47 -55 -92 -58 -100 -4 -8 -54 -91 -112 -185 -57 -93 -151
-249 -209 -345 -58 -96 -202 -335 -320 -530 -118 -195 -213 -356 -211 -358 3
-3 78 42 525 313 80 48 158 95 173 104 15 9 101 60 190 115 89 54 178 107 197
119 47 27 363 217 634 382 18 11 96 58 172 103 76 46 184 110 238 143 54 33
100 58 101 57 5 -8 158 -284 195 -353 24 -44 46 -84 50 -90 4 -5 25 -41 46
-80 20 -38 107 -196 192 -350 85 -154 168 -305 185 -335 16 -30 65 -118 107
-195 42 -77 94 -171 115 -210 21 -38 49 -87 62 -107 13 -21 23 -39 23 -42 0
-2 41 -77 90 -167 50 -89 90 -163 90 -165 0 -1 20 -37 45 -78 25 -42 45 -81
45 -86 0 -5 4 -12 10 -15 10 -6 10 26 -15 1305 -3 146 -8 373 -10 505 -2 132
-7 363 -10 513 -6 257 -5 272 12 273 31 1 331 -3 508 -6 94 -2 298 -7 455 -10
157 -3 375 -8 485 -10 110 -2 335 -7 500 -10 165 -3 375 -8 468 -10 92 -2 167
-2 167 0 0 3 -64 40 -250 142 -30 17 -121 67 -203 112 -81 44 -182 100 -225
123 -42 23 -94 52 -114 65 -21 13 -39 23 -41 23 -2 0 -53 27 -113 61 -60 33
-147 81 -194 106 -47 26 -114 63 -150 83 -36 21 -94 53 -130 72 -36 20 -85 47
-110 60 -43 24 -568 314 -675 373 -27 15 -54 31 -58 35 -4 4 103 191 239 416
275 454 320 529 349 579 11 19 76 127 145 240 69 113 132 217 141 233 9 15
115 191 237 392 121 201 219 366 217 368 -2 3 -617 -366 -1260 -756 -104 -63
-206 -124 -226 -136 -20 -12 -107 -64 -192 -116 -86 -52 -169 -102 -184 -110
-15 -8 -42 -25 -60 -38 -17 -12 -33 -22 -36 -22 -2 0 -64 -36 -137 -81 -73
-44 -133 -79 -135 -77 -1 2 -51 91 -110 198 -59 107 -119 215 -133 240 -22 40
-301 545 -364 660 -108 196 -217 393 -378 685 -103 187 -198 358 -210 380 -13
22 -32 57 -42 78 -10 20 -21 37 -23 37 -3 0 -3 -111 0 -247z"/>
</g>
</svg>
